<svg width="355" height="403" viewBox="0 0 355 403" fill="none" xmlns="http://www.w3.org/2000/svg">
<path d="M253.489 2.29842C252.023 4.43176 251.489 8.83176 251.489 20.1651C251.489 37.4984 253.623 48.6984 260.023 66.0317C262.556 72.9651 265.623 82.1651 266.823 86.5651C268.956 94.9651 269.356 111.365 267.489 115.898L266.423 118.565L265.489 115.898C258.956 97.8984 253.356 91.6317 231.489 77.2317C222.289 71.2317 210.956 62.5651 206.156 58.2984C196.689 49.6318 188.823 46.1651 188.823 50.8318C188.823 52.2984 193.089 61.7651 198.289 72.0317C211.489 97.7651 212.956 102.432 212.956 118.432C212.956 125.765 212.423 132.165 211.756 132.832C210.956 133.632 208.023 130.032 204.289 124.032C194.156 107.765 176.156 93.3651 170.156 96.5651C166.823 98.2984 166.823 100.432 170.289 111.232C173.623 122.032 174.956 139.765 172.823 145.232L171.356 149.098L165.889 139.232C162.823 133.765 159.623 127.765 158.689 125.898C155.889 120.698 153.756 108.698 154.689 102.698C155.223 99.6317 156.956 90.5651 158.823 82.5651C163.089 62.9651 164.023 52.8318 162.289 46.4318C160.023 38.2984 158.823 37.0984 154.689 38.5651C151.889 39.6318 150.689 41.4984 148.956 47.2318C146.023 56.4318 137.889 73.8984 132.289 82.5651C126.689 91.0984 120.823 104.698 120.823 108.698C120.823 111.898 118.689 116.298 117.756 115.232C117.489 114.832 114.823 111.232 111.889 107.232C108.823 103.232 102.689 96.2984 98.1558 91.8984C88.8225 82.8317 75.2225 66.5651 69.7558 58.1651C66.1558 52.6984 63.3558 51.3651 59.6225 53.7651C58.2892 54.6984 58.0225 56.6984 58.6892 62.4317C62.0225 88.9651 57.4892 107.632 37.6225 148.565C28.6892 167.232 26.1558 176.432 26.1558 190.832V201.898L18.5558 197.765C14.2892 195.498 10.2892 193.098 9.62251 192.432C7.62251 190.565 0.822505 190.965 0.0225045 192.965C-0.244162 193.898 1.88917 200.165 4.8225 206.965C10.8225 220.432 13.2225 230.832 15.4892 253.898C17.3558 273.898 18.6892 279.098 25.0892 292.165C28.8225 300.032 32.6892 305.365 38.9558 311.632C49.8892 322.432 55.6225 325.898 58.8225 323.232C60.5558 321.765 60.9558 320.032 60.2892 315.898C59.8892 312.965 58.6892 304.298 57.6225 296.565C51.8892 256.698 57.2225 230.832 75.4892 210.965C90.6892 194.298 106.156 186.965 126.156 186.965C146.689 186.832 159.889 191.632 181.223 206.565C186.956 210.565 192.156 213.898 192.956 213.898C193.623 213.898 195.623 210.698 197.356 206.698C199.889 200.965 202.689 197.765 210.823 191.365C230.289 175.898 238.823 172.565 259.489 172.565C281.356 172.565 291.889 176.832 304.956 190.965C315.889 202.698 320.156 210.698 324.289 226.832C329.356 246.298 330.156 269.765 326.289 283.898C322.556 297.498 316.689 307.898 305.356 321.098C298.156 329.498 296.689 332.032 297.756 333.765C299.756 336.832 303.356 335.632 310.823 329.365C314.556 326.298 322.956 319.765 329.623 314.832C342.156 305.632 346.556 300.565 351.756 289.232C356.289 279.232 355.889 258.965 350.956 243.232C346.156 228.565 345.089 211.365 348.023 199.232C351.223 186.165 353.623 147.898 351.623 140.832C350.156 135.498 349.756 135.232 345.089 135.232C340.556 135.232 339.756 135.898 334.956 143.365C328.823 152.832 323.889 156.832 322.023 153.765C321.356 152.698 320.823 144.965 320.823 136.565C320.689 104.032 316.289 91.8984 293.623 61.2318C290.289 56.8318 284.823 48.5651 281.356 42.8318C277.889 37.0984 273.889 31.6318 272.556 30.6984C271.223 29.7651 269.756 26.9651 269.223 24.4318C267.889 17.4984 260.023 1.09842 257.623 0.165092C256.423 -0.368242 254.823 0.431758 253.489 2.29842ZM271.489 42.0318C276.823 50.8318 285.623 63.8984 291.089 70.9651C301.489 84.6984 307.489 95.6317 310.156 106.565C311.089 110.165 312.156 124.298 312.689 137.898C313.223 151.498 314.023 163.365 314.556 164.165C317.489 168.965 330.023 163.632 337.756 154.565C341.489 150.032 342.956 148.965 343.756 150.432C345.223 152.965 342.689 182.432 340.023 195.898C337.223 209.765 338.156 230.965 342.023 243.232C348.023 261.898 347.889 277.232 341.623 289.632C338.289 296.165 332.023 302.965 330.689 301.498C330.289 301.098 331.623 296.032 333.623 290.298C337.089 280.698 337.356 278.432 337.356 260.565C337.356 243.898 336.823 239.365 333.756 227.898C328.689 208.698 322.423 196.965 311.756 186.165C298.423 172.698 292.423 169.365 277.223 166.432C270.023 164.965 258.823 163.898 252.156 163.898C241.089 163.898 239.356 164.298 230.156 168.698C216.823 175.098 202.423 185.632 195.223 193.898C192.156 197.498 188.956 200.565 188.289 200.565C187.623 200.565 181.756 197.098 175.089 192.965C158.289 182.432 148.556 179.098 132.156 178.298C107.223 177.098 91.2225 183.365 73.2225 201.365C50.6892 224.032 44.1558 248.965 49.2225 294.832C50.1558 303.098 50.4225 309.898 49.8892 309.898C47.2225 309.898 38.1558 299.898 34.2892 292.698C28.6892 282.032 25.3558 268.165 23.4892 248.298C21.8892 230.832 20.8225 225.365 16.6892 214.032C15.2225 210.165 14.2892 206.565 14.6892 206.298C16.4225 204.432 24.2892 210.965 28.5558 217.898C34.0225 226.565 36.4225 228.298 39.0892 225.498C40.6892 224.032 40.4225 222.032 38.0225 213.098C34.4225 200.298 34.0225 183.365 37.2225 172.565C38.4225 168.565 43.2225 157.098 48.0225 147.232C60.1558 121.632 66.0225 104.032 67.8892 87.4984L69.4892 73.6317L87.6225 92.1651C106.823 111.632 109.356 115.365 118.156 137.098C123.089 149.498 126.156 153.098 128.956 150.298C130.156 149.098 130.156 145.632 128.956 135.498C127.623 124.432 127.756 120.698 129.356 112.965C131.756 101.098 133.223 97.7651 143.889 79.2317C154.023 62.0317 154.556 62.5651 149.356 84.9651C146.689 96.5651 146.023 102.298 146.423 110.432C147.089 120.032 147.623 122.032 154.823 135.765C159.089 143.898 164.156 154.965 166.023 160.432C171.623 176.165 175.623 176.565 178.956 161.632C182.023 147.498 182.689 127.765 180.423 117.898C179.223 113.098 178.556 109.098 178.823 108.832C179.089 108.565 181.489 110.032 184.156 112.165C191.756 118.032 198.689 128.698 204.823 143.765C207.889 151.632 211.356 158.032 212.556 158.565C215.889 159.765 219.089 154.965 220.023 147.632C223.356 118.965 221.889 103.365 213.623 84.1651C210.956 78.2984 209.089 73.2317 209.223 72.9651C210.423 71.8984 242.423 94.5651 247.756 100.298C254.156 107.098 255.089 109.498 260.423 131.098C263.089 142.165 265.756 145.232 269.889 141.498C274.823 137.098 278.823 110.432 276.689 95.7651C276.023 90.6984 272.156 76.9651 268.156 65.2317C261.223 44.6984 257.489 25.8984 260.423 25.8984C261.223 25.8984 266.156 33.0984 271.489 42.0318Z" fill="#530586"/>
<path d="M243.223 183.097C225.489 188.964 214.689 199.097 205.223 218.564C201.889 225.497 198.689 231.231 198.023 231.231C197.489 231.231 193.756 228.031 189.623 224.164C163.623 199.364 129.356 193.631 101.356 209.231C91.4893 214.697 79.756 227.097 74.956 236.831C62.0226 263.497 66.156 292.031 87.6226 323.364C106.689 351.231 119.756 361.231 168.823 385.497C193.489 397.764 201.623 401.231 207.089 401.631L213.889 402.164L223.089 392.431C228.023 387.097 245.356 369.231 261.356 352.697C297.223 315.631 305.889 305.631 311.889 294.164C318.956 280.831 321.356 271.231 321.356 256.564C321.489 225.631 305.889 197.764 281.889 186.031C270.289 180.297 255.089 179.097 243.223 183.097ZM278.689 193.097C292.423 199.764 305.889 218.164 310.823 236.564C313.223 245.764 313.356 265.764 310.956 274.564C306.956 289.897 298.689 300.964 268.156 332.564C257.223 343.897 239.489 362.431 228.956 373.631C218.423 384.697 208.956 393.897 207.889 393.897C204.156 393.897 143.756 363.497 132.289 355.897C114.956 344.431 108.823 338.164 96.8226 320.431C81.0893 297.231 76.8226 286.431 76.8226 269.231C76.8226 242.297 87.4893 224.831 110.156 214.164C127.889 205.764 146.156 206.697 165.356 216.964C175.089 222.164 193.223 238.964 195.489 244.831C198.023 252.031 198.956 253.231 201.623 253.231C203.623 253.231 204.289 251.497 205.623 243.231C208.423 224.831 221.356 203.631 234.689 195.897C248.423 187.897 265.756 186.831 278.689 193.097Z" fill="#530586"/>
</svg>
